<svg width="20" height="20" viewBox="0 0 20 20" fill="none" xmlns="http://www.w3.org/2000/svg">
<path fill-rule="evenodd" clip-rule="evenodd" d="M5.64016 0.0638635C6.66376 0.0171435 6.99056 0.00610352 9.59696 0.00610352C12.2034 0.00610352 12.5302 0.0171435 13.5538 0.0638635C14.5753 0.110424 15.273 0.272664 15.8834 0.509943C16.5144 0.755143 17.0496 1.0833 17.5832 1.61682C18.1167 2.15042 18.4449 2.68562 18.6902 3.31666C18.9274 3.92706 19.0896 4.62474 19.1362 5.64626C19.1829 6.66986 19.1939 6.99666 19.1939 9.60306C19.1939 12.2095 19.1829 12.5363 19.1362 13.5599C19.0896 14.5814 18.9274 15.2791 18.6902 15.8895C18.4449 16.5205 18.1167 17.0557 17.5832 17.5893C17.0496 18.1228 16.5144 18.451 15.8834 18.6962C15.273 18.9335 14.5753 19.0957 13.5538 19.1423C12.5302 19.189 12.2034 19.2 9.59696 19.2C6.99056 19.2 6.66376 19.189 5.64016 19.1423C4.61864 19.0957 3.92096 18.9335 3.31056 18.6962C2.67952 18.4509 2.14432 18.1228 1.61072 17.5893C1.0772 17.0557 0.74904 16.5205 0.50384 15.8895C0.26656 15.2791 0.10432 14.5814 0.05776 13.5599C0.01104 12.5363 0 12.2095 0 9.60306C0 6.99666 0.01104 6.66986 0.05776 5.64626C0.10432 4.62474 0.26656 3.92706 0.50384 3.31666C0.74912 2.68562 1.0772 2.15042 1.61072 1.61682C2.14432 1.0833 2.67952 0.755143 3.31056 0.509943C3.92096 0.272664 4.61864 0.110424 5.64016 0.0638635ZM13.475 1.79122C12.463 1.74506 12.1594 1.73522 9.59696 1.73522C7.03448 1.73522 6.73096 1.74506 5.71896 1.79122C4.78328 1.83386 4.27512 1.99026 3.93696 2.12162C3.48896 2.29578 3.16928 2.5037 2.83352 2.83954C2.4976 3.17538 2.28968 3.49506 2.1156 3.94306C1.98416 4.28122 1.82784 4.78938 1.7852 5.72506C1.73896 6.73698 1.7292 7.04058 1.7292 9.60306C1.7292 12.1655 1.73896 12.4691 1.7852 13.4811C1.82784 14.4167 1.98416 14.9249 2.1156 15.2631C2.28968 15.7111 2.49768 16.0307 2.83352 16.3665C3.16928 16.7024 3.48896 16.9103 3.93696 17.0844C4.27512 17.2159 4.78328 17.3722 5.71896 17.4148C6.7308 17.4611 7.03432 17.4708 9.59696 17.4708C12.1597 17.4708 12.4632 17.4611 13.475 17.4148C14.4106 17.3722 14.9188 17.2159 15.257 17.0844C15.705 16.9103 16.0246 16.7024 16.3605 16.3665C16.6963 16.0307 16.9042 15.7111 17.0784 15.2631C17.2098 14.9249 17.3662 14.4167 17.4088 13.4811C17.455 12.4691 17.4648 12.1655 17.4648 9.60306C17.4648 7.04058 17.455 6.73706 17.4088 5.72506C17.3662 4.78938 17.2098 4.28122 17.0784 3.94306C16.9042 3.49506 16.6963 3.17538 16.3605 2.83954C16.0246 2.5037 15.705 2.29578 15.257 2.12162C14.9188 1.99026 14.4106 1.83386 13.475 1.79122Z" fill="white"/>
<path fill-rule="evenodd" clip-rule="evenodd" d="M14.7198 5.63189C15.3559 5.63189 15.8715 5.11629 15.8715 4.48029C15.8715 3.84421 15.3558 3.32861 14.7198 3.32861C14.0838 3.32861 13.5682 3.84429 13.5682 4.48029C13.5682 5.11629 14.0838 5.63189 14.7198 5.63189ZM9.59695 4.67493C6.87519 4.67493 4.66879 6.88133 4.66879 9.60317C4.66879 12.3249 6.87519 14.5313 9.59695 14.5313C12.3187 14.5313 14.5251 12.3249 14.5251 9.60317C14.5251 6.88141 12.3187 4.67501 9.59695 4.67501V4.67493ZM9.59695 12.8021C7.83023 12.8021 6.39799 11.3699 6.39799 9.60317C6.39799 7.83637 7.83023 6.40413 9.59695 6.40413C11.3638 6.40413 12.796 7.83637 12.796 9.60317C12.796 11.3699 11.3638 12.8021 9.59695 12.8021Z" fill="white"/>
</svg>
