<svg width="20" height="14" viewBox="0 0 20 14" fill="none" xmlns="http://www.w3.org/2000/svg">
<path fill-rule="evenodd" clip-rule="evenodd" d="M19.1042 6.90371C19.1042 6.90371 19.12 3.78787 18.7108 2.29291C18.4905 1.47467 17.8453 0.829391 17.027 0.609071C15.532 0.199951 9.55216 0.199951 9.55216 0.199951C9.55216 0.199951 3.57224 0.199951 2.0772 0.593391C1.27464 0.813711 0.61376 1.47459 0.39344 2.29291C0 3.78787 0 6.88803 0 6.88803C0 6.88803 0 10.004 0.39344 11.4832C0.61376 12.3014 1.25896 12.9466 2.0772 13.1669C3.58792 13.5761 9.55216 13.5761 9.55216 13.5761C9.55216 13.5761 15.532 13.5761 17.027 13.1827C17.8453 12.9624 18.4905 12.3172 18.7108 11.4989C19.1042 10.0039 19.1042 6.90371 19.1042 6.90371ZM12.6208 6.88803L7.648 9.75211V4.02395L12.6208 6.88803Z" fill="white"/>
</svg>
