<svg width="20" height="20" viewBox="0 0 20 20" fill="none" xmlns="http://www.w3.org/2000/svg">
<path d="M18.1402 0H1.0596C0.47432 0 0 0.4744 0 1.05968V18.1403C0 18.7254 0.4744 19.2 1.0596 19.2H10.2552V11.7648H7.75304V8.86712H10.2553V6.73024C10.2553 4.25024 11.77 2.89992 13.9821 2.89992C15.0419 2.89992 15.9526 2.97872 16.218 3.01416V5.60576L14.6836 5.60656C13.4804 5.60656 13.2476 6.17808 13.2476 7.01704V8.86712H16.1169L15.7434 11.7647H13.2476V19.2H18.1402C18.7254 19.2 19.2 18.7254 19.2 18.1403V1.05968C19.2 0.47432 18.7254 0 18.1402 0Z" fill="white"/>
</svg>
