<svg width="27" height="27" viewBox="0 0 27 27" fill="none" xmlns="http://www.w3.org/2000/svg">
<g opacity="0.8">
<path fill-rule="evenodd" clip-rule="evenodd" d="M4.47194 1.0363C4.08142 0.645778 3.44826 0.645777 3.05773 1.0363L1.03606 3.05797C0.645533 3.4485 0.645533 4.08166 1.03606 4.47219L10.064 13.5001L1.03613 22.528C0.645602 22.9185 0.645603 23.5517 1.03613 23.9422L3.0578 25.9639C3.44833 26.3544 4.08149 26.3544 4.47201 25.9639L13.4999 16.936L22.5278 25.9639C22.9183 26.3544 23.5514 26.3544 23.942 25.9639L25.9636 23.9422C26.3542 23.5517 26.3542 22.9185 25.9636 22.528L16.9358 13.5001L25.9637 4.47219C26.3542 4.08166 26.3542 3.4485 25.9637 3.05797L23.942 1.0363C23.5515 0.645777 22.9183 0.645778 22.5278 1.0363L13.4999 10.0642L4.47194 1.0363Z" fill="white"/>
</g>
</svg>
