 <svg xmlns="http://www.w3.org/2000/svg">
 <symbol id="search" viewBox="0 0 17 17">
  <path d="M4.66263 13.0119L4.3106 12.7034L3.97958 13.0343L0.720178 16.2929L0.707136 16.2799L3.9663 13.0213L4.29742 12.6902L3.98877 12.3381C1.53122 9.53454 1.63978 5.26526 4.31431 2.59073C7.10195 -0.196911 11.6216 -0.196911 14.4093 2.59073C17.1969 5.37838 17.1969 9.89805 14.4093 12.6857C11.735 15.36 7.46619 15.4688 4.66263 13.0119Z"
    stroke="white"
  />
 </symbol>
 <symbol id="auth" viewBox="0 0 15 18">
    <path fill-rule="evenodd"
          clip-rule="evenodd"
          d="M7.23125 8.57895C8.99856 8.57895 10.4313 6.88234 10.4313 4.78947C10.4313 2.69661 8.99856 1 7.23125 1C5.46394 1 4.03125 2.69661 4.03125 4.78947C4.03125 6.88234 5.46394 8.57895 7.23125 8.57895Z"
          stroke="white"
    />
    <path
        fill-rule="evenodd"
        clip-rule="evenodd"
        d="M13.5474 16.9999C13.5474 13.8841 11.0211 11.3999 7.94737 11.3999H7.27368H6.6C3.48421 11.3999 1 13.9262 1 16.9999H13.5474Z"
        stroke="white"
    />
 </symbol>  
 <symbol id="instagram" viewBox="0 0 20 20">
    <path fill-rule="evenodd" clip-rule="evenodd" d="M5.64016 0.0638635C6.66376 0.0171435 6.99056 0.00610352 9.59696 0.00610352C12.2034 0.00610352 12.5302 0.0171435 13.5538 0.0638635C14.5753 0.110424 15.273 0.272664 15.8834 0.509943C16.5144 0.755143 17.0496 1.0833 17.5832 1.61682C18.1167 2.15042 18.4449 2.68562 18.6902 3.31666C18.9274 3.92706 19.0896 4.62474 19.1362 5.64626C19.1829 6.66986 19.1939 6.99666 19.1939 9.60306C19.1939 12.2095 19.1829 12.5363 19.1362 13.5599C19.0896 14.5814 18.9274 15.2791 18.6902 15.8895C18.4449 16.5205 18.1167 17.0557 17.5832 17.5893C17.0496 18.1228 16.5144 18.451 15.8834 18.6962C15.273 18.9335 14.5753 19.0957 13.5538 19.1423C12.5302 19.189 12.2034 19.2 9.59696 19.2C6.99056 19.2 6.66376 19.189 5.64016 19.1423C4.61864 19.0957 3.92096 18.9335 3.31056 18.6962C2.67952 18.4509 2.14432 18.1228 1.61072 17.5893C1.0772 17.0557 0.74904 16.5205 0.50384 15.8895C0.26656 15.2791 0.10432 14.5814 0.05776 13.5599C0.01104 12.5363 0 12.2095 0 9.60306C0 6.99666 0.01104 6.66986 0.05776 5.64626C0.10432 4.62474 0.26656 3.92706 0.50384 3.31666C0.74912 2.68562 1.0772 2.15042 1.61072 1.61682C2.14432 1.0833 2.67952 0.755143 3.31056 0.509943C3.92096 0.272664 4.61864 0.110424 5.64016 0.0638635ZM13.475 1.79122C12.463 1.74506 12.1594 1.73522 9.59696 1.73522C7.03448 1.73522 6.73096 1.74506 5.71896 1.79122C4.78328 1.83386 4.27512 1.99026 3.93696 2.12162C3.48896 2.29578 3.16928 2.5037 2.83352 2.83954C2.4976 3.17538 2.28968 3.49506 2.1156 3.94306C1.98416 4.28122 1.82784 4.78938 1.7852 5.72506C1.73896 6.73698 1.7292 7.04058 1.7292 9.60306C1.7292 12.1655 1.73896 12.4691 1.7852 13.4811C1.82784 14.4167 1.98416 14.9249 2.1156 15.2631C2.28968 15.7111 2.49768 16.0307 2.83352 16.3665C3.16928 16.7024 3.48896 16.9103 3.93696 17.0844C4.27512 17.2159 4.78328 17.3722 5.71896 17.4148C6.7308 17.4611 7.03432 17.4708 9.59696 17.4708C12.1597 17.4708 12.4632 17.4611 13.475 17.4148C14.4106 17.3722 14.9188 17.2159 15.257 17.0844C15.705 16.9103 16.0246 16.7024 16.3605 16.3665C16.6963 16.0307 16.9042 15.7111 17.0784 15.2631C17.2098 14.9249 17.3662 14.4167 17.4088 13.4811C17.455 12.4691 17.4648 12.1655 17.4648 9.60306C17.4648 7.04058 17.455 6.73706 17.4088 5.72506C17.3662 4.78938 17.2098 4.28122 17.0784 3.94306C16.9042 3.49506 16.6963 3.17538 16.3605 2.83954C16.0246 2.5037 15.705 2.29578 15.257 2.12162C14.9188 1.99026 14.4106 1.83386 13.475 1.79122Z" fill="white"/>
    <path fill-rule="evenodd" clip-rule="evenodd" d="M14.7198 5.63189C15.3559 5.63189 15.8715 5.11629 15.8715 4.48029C15.8715 3.84421 15.3558 3.32861 14.7198 3.32861C14.0838 3.32861 13.5682 3.84429 13.5682 4.48029C13.5682 5.11629 14.0838 5.63189 14.7198 5.63189ZM9.59695 4.67493C6.87519 4.67493 4.66879 6.88133 4.66879 9.60317C4.66879 12.3249 6.87519 14.5313 9.59695 14.5313C12.3187 14.5313 14.5251 12.3249 14.5251 9.60317C14.5251 6.88141 12.3187 4.67501 9.59695 4.67501V4.67493ZM9.59695 12.8021C7.83023 12.8021 6.39799 11.3699 6.39799 9.60317C6.39799 7.83637 7.83023 6.40413 9.59695 6.40413C11.3638 6.40413 12.796 7.83637 12.796 9.60317C12.796 11.3699 11.3638 12.8021 9.59695 12.8021Z" fill="white"/>
 </symbol> 
 <symbol id="facebook" viewBox="0 0 20 20">
   <path d="M18.1402 0H1.0596C0.47432 0 0 0.4744 0 1.05968V18.1403C0 18.7254 0.4744 19.2 1.0596 19.2H10.2552V11.7648H7.75304V8.86712H10.2553V6.73024C10.2553 4.25024 11.77 2.89992 13.9821 2.89992C15.0419 2.89992 15.9526 2.97872 16.218 3.01416V5.60576L14.6836 5.60656C13.4804 5.60656 13.2476 6.17808 13.2476 7.01704V8.86712H16.1169L15.7434 11.7647H13.2476V19.2H18.1402C18.7254 19.2 19.2 18.7254 19.2 18.1403V1.05968C19.2 0.47432 18.7254 0 18.1402 0Z" fill="white"/>
</symbol>  
 <symbol id="youtube"  viewBox="0 0 20 14">
    <path fill-rule="evenodd" clip-rule="evenodd" d="M19.1042 6.90371C19.1042 6.90371 19.12 3.78787 18.7108 2.29291C18.4905 1.47467 17.8453 0.829391 17.027 0.609071C15.532 0.199951 9.55216 0.199951 9.55216 0.199951C9.55216 0.199951 3.57224 0.199951 2.0772 0.593391C1.27464 0.813711 0.61376 1.47459 0.39344 2.29291C0 3.78787 0 6.88803 0 6.88803C0 6.88803 0 10.004 0.39344 11.4832C0.61376 12.3014 1.25896 12.9466 2.0772 13.1669C3.58792 13.5761 9.55216 13.5761 9.55216 13.5761C9.55216 13.5761 15.532 13.5761 17.027 13.1827C17.8453 12.9624 18.4905 12.3172 18.7108 11.4989C19.1042 10.0039 19.1042 6.90371 19.1042 6.90371ZM12.6208 6.88803L7.648 9.75211V4.02395L12.6208 6.88803Z" fill="white"/>
 </symbol>     
 <symbol id="burger"  viewBox="0 0 20 15">
   <rect width="20" height="1" fill="white"/>
   <rect y="7" width="20" height="1" fill="white"/>
   <rect y="14" width="20" height="1" fill="white"/>
 </symbol>
 <symbol id="search-domain" viewBox="0 0 20 20">
   <path d="M5.42729 15.3744L5.07526 15.0659L4.74424 15.3969L0.847262 19.2929L0.707136 19.1528L4.60385 15.2567L4.93497 14.9257L4.62632 14.5736C1.70465 11.2405 1.83368 6.16512 5.01327 2.98553C8.32731 -0.32851 13.7004 -0.32851 17.0145 2.98553C20.3285 6.29957 20.3285 11.6727 17.0145 14.9867C13.8352 18.166 8.76032 18.2953 5.42729 15.3744Z" stroke="#DFE1EB"/>
 </symbol> 
 <symbol id="arrow-dropdown" viewBox="0 0 20 20">
  <path d="M6.10417 7.19926C5.85417 6.93358 5.4375 6.93358 5.1875 7.19926C4.9375 7.46494 4.9375 7.90775 5.1875 8.17343L9.54167 12.8007C9.79167 13.0664 10.2083 13.0664 10.4583 12.8007L14.8125 8.17343C15.0625 7.90775 15.0625 7.46494 14.8125 7.19926C14.5625 6.93358 14.1458 6.93358 13.8958 7.19926L10 11.3395L6.10417 7.19926Z" fill="#878B99"/>

 </symbol>    
 <symbol id="counter-plus" viewBox="0 0 9 9" >
  <path d="M3.504 5.296H0.592V3.792H3.504V0.624H5.12V3.792H8.048V5.296H5.12V8.464H3.504V5.296Z" fill="#878B99"/> 
 </symbol>
  <symbol id="counter-minus" viewBox="0 0 8 3">
    <path d="M0.72 0.816H7.776V2.16H0.72V0.816Z" fill="#878B99"/> 
 </symbol>
 <symbol id="clip" viewBox="0 0 9 18">
   <path d="M7.81559 4.5V4.40779C7.81559 2.53766 6.27792 1 4.40779 1C2.53766 1 1 2.53766 1 4.40779V13.6753C1 15.5039 2.4961 17 4.32467 17C6.15325 17 7.64935 15.5039 7.64935 13.6753V8.35584C7.64935 7.4 6.85974 6.61039 5.9039 6.61039C4.94805 6.61039 4.15844 7.4 4.15844 8.35584V13.0519"/>
 </symbol>


 <symbol id="popup-close" viewBox="0 0 27 27">
 <g opacity="0.8">
<path fill-rule="evenodd" clip-rule="evenodd" d="M4.47194 1.0363C4.08142 0.645778 3.44826 0.645777 3.05773 1.0363L1.03606 3.05797C0.645533 3.4485 0.645533 4.08166 1.03606 4.47219L10.064 13.5001L1.03613 22.528C0.645602 22.9185 0.645603 23.5517 1.03613 23.9422L3.0578 25.9639C3.44833 26.3544 4.08149 26.3544 4.47201 25.9639L13.4999 16.936L22.5278 25.9639C22.9183 26.3544 23.5514 26.3544 23.942 25.9639L25.9636 23.9422C26.3542 23.5517 26.3542 22.9185 25.9636 22.528L16.9358 13.5001L25.9637 4.47219C26.3542 4.08166 26.3542 3.4485 25.9637 3.05797L23.942 1.0363C23.5515 0.645777 22.9183 0.645778 22.5278 1.0363L13.4999 10.0642L4.47194 1.0363Z" fill=""/>
</g>
 </symbol>
 </svg>