<svg width="26" height="26" viewBox="0 0 26 26" fill="none" xmlns="http://www.w3.org/2000/svg">
<circle cx="13" cy="13" r="13" fill="#BDF59F"/>
<path d="M11.925 14.217C11.925 13.997 11.958 13.799 12.024 13.623C12.09 13.447 12.1743 13.282 12.277 13.128C12.387 12.974 12.508 12.831 12.64 12.699C12.772 12.5597 12.904 12.424 13.036 12.292C13.2413 12.0867 13.421 11.8887 13.575 11.698C13.729 11.5 13.806 11.2837 13.806 11.049C13.806 10.7703 13.7253 10.5467 13.564 10.378C13.41 10.2093 13.1643 10.125 12.827 10.125C12.4823 10.125 12.2 10.2387 11.98 10.466C11.76 10.686 11.6317 10.9867 11.595 11.368H10.319C10.341 11.0087 10.418 10.686 10.55 10.4C10.682 10.1067 10.858 9.861 11.078 9.663C11.3053 9.45767 11.573 9.3 11.881 9.19C12.189 9.08 12.5263 9.025 12.893 9.025C13.289 9.025 13.63 9.07633 13.916 9.179C14.2093 9.27433 14.4513 9.41 14.642 9.586C14.8327 9.762 14.972 9.96733 15.06 10.202C15.1553 10.4367 15.203 10.686 15.203 10.95C15.203 11.148 15.1737 11.3277 15.115 11.489C15.0637 11.6503 14.994 11.8043 14.906 11.951C14.818 12.0903 14.7153 12.226 14.598 12.358C14.4807 12.4827 14.3597 12.6037 14.235 12.721C14.103 12.8457 13.9747 12.9703 13.85 13.095C13.7253 13.2123 13.6117 13.3333 13.509 13.458C13.4137 13.5827 13.333 13.7147 13.267 13.854C13.201 13.986 13.1643 14.129 13.157 14.283V14.635H11.925V14.217ZM12.53 17.077C12.2807 17.077 12.068 16.9963 11.892 16.835C11.716 16.6663 11.628 16.4647 11.628 16.23C11.628 15.988 11.716 15.7863 11.892 15.625C12.068 15.4563 12.2807 15.372 12.53 15.372C12.772 15.372 12.9773 15.4563 13.146 15.625C13.322 15.7863 13.41 15.988 13.41 16.23C13.41 16.4647 13.322 16.6663 13.146 16.835C12.9773 16.9963 12.772 17.077 12.53 17.077Z" fill="#3A741B"/>
</svg>
